<svg width="53" height="53" viewBox="0 0 53 53" fill="none" xmlns="http://www.w3.org/2000/svg">
<path d="M49.6357 4.82318H9.384C8.95524 4.82318 8.60763 5.17079 8.60763 5.59955C8.60763 6.02831 8.95524 6.37592 9.384 6.37592H49.6357C50.6346 6.37592 51.4473 7.18862 51.4473 8.18744V11.2541H1.55273V8.18744C1.55273 7.18862 2.36544 6.37592 3.36426 6.37592H5.76096C6.18972 6.37592 6.53732 6.02831 6.53732 5.59955C6.53732 5.17079 6.18972 4.82318 5.76096 4.82318H3.36426C1.50926 4.82318 0 6.33244 0 8.18744V44.8125C0 46.6675 1.50926 48.1768 3.36426 48.1768H9.45781C9.88657 48.1768 10.2342 47.8292 10.2342 47.4004C10.2342 46.9716 9.88657 46.624 9.45781 46.624H3.36426C2.36544 46.624 1.55273 45.8113 1.55273 44.8125V12.8068H51.4473V44.8126C51.4473 45.8114 50.6346 46.6241 49.6357 46.6241H13.0809C12.6521 46.6241 12.3045 46.9717 12.3045 47.4005C12.3045 47.8293 12.6521 48.1769 13.0809 48.1769H49.6357C51.4907 48.1769 53 46.6676 53 44.8126V8.18744C53 6.33234 51.4907 4.82318 49.6357 4.82318Z" fill="#263955"/>
<path d="M49.0107 9.59131C49.4395 9.59131 49.7871 9.24372 49.7871 8.81494C49.7871 8.38617 49.4395 8.03857 49.0107 8.03857C48.582 8.03857 48.2344 8.38617 48.2344 8.81494C48.2344 9.24372 48.582 9.59131 49.0107 9.59131Z" fill="#263955"/>
<path d="M45.792 9.59131C46.2208 9.59131 46.5684 9.24372 46.5684 8.81494C46.5684 8.38617 46.2208 8.03857 45.792 8.03857C45.3632 8.03857 45.0156 8.38617 45.0156 8.81494C45.0156 9.24372 45.3632 9.59131 45.792 9.59131Z" fill="#263955"/>
<path d="M42.5811 9.59131C43.0098 9.59131 43.3574 9.24372 43.3574 8.81494C43.3574 8.38617 43.0098 8.03857 42.5811 8.03857C42.1523 8.03857 41.8047 8.38617 41.8047 8.81494C41.8047 9.24372 42.1523 9.59131 42.5811 9.59131Z" fill="#263955"/>
<path d="M26.5003 41.2812C24.9492 41.2855 23.4126 40.9814 21.98 40.3867C20.5473 39.7919 19.2472 38.9183 18.1551 37.8167C18.0711 37.7323 18.0045 37.6323 17.9591 37.5222C17.9137 37.4122 17.8904 37.2942 17.8906 37.1752C17.8908 37.0561 17.9145 36.9383 17.9602 36.8283C18.0059 36.7184 18.0729 36.6186 18.1572 36.5345C18.2415 36.4505 18.3415 36.3839 18.4516 36.3385C18.5617 36.2931 18.6796 36.2698 18.7987 36.27C18.9177 36.2702 19.0356 36.2938 19.1455 36.3396C19.2554 36.3853 19.3552 36.4523 19.4393 36.5366C20.8321 37.9341 22.6082 38.887 24.5429 39.2744C26.4775 39.6618 28.4837 39.4664 30.3072 38.713C32.1307 37.9595 33.6896 36.6818 34.7866 35.0418C35.8835 33.4017 36.469 31.4731 36.4691 29.5C36.4691 29.2596 36.5646 29.0291 36.7345 28.8592C36.9045 28.6892 37.135 28.5938 37.3753 28.5938C37.6157 28.5938 37.8462 28.6892 38.0162 28.8592C38.1861 29.0291 38.2816 29.2596 38.2816 29.5C38.2781 32.6235 37.0358 35.6181 34.8271 37.8268C32.6184 40.0354 29.6239 41.2778 26.5003 41.2812Z" fill="#263955"/>
<path d="M15.625 30.4063C15.3846 30.4063 15.1541 30.3108 14.9842 30.1408C14.8142 29.9709 14.7188 29.7404 14.7188 29.5C14.7188 27.1717 15.4088 24.8955 16.7015 22.959C17.9943 21.0225 19.8319 19.5125 21.9822 18.6196C24.1326 17.7268 26.4993 17.4911 28.7835 17.9424C31.0677 18.3937 33.167 19.5117 34.8162 21.1553C34.9864 21.325 35.0821 21.5554 35.0824 21.7958C35.0827 22.0361 34.9875 22.2668 34.8178 22.4369C34.648 22.6071 34.4176 22.7029 34.1773 22.7032C33.9369 22.7035 33.7063 22.6083 33.5361 22.4385C32.1405 21.048 30.3643 20.1022 28.4315 19.7205C26.4988 19.3388 24.4963 19.5383 22.6769 20.2938C20.8575 21.0494 19.3027 22.327 18.2089 23.9656C17.1151 25.6041 16.5313 27.53 16.5312 29.5C16.5312 29.7404 16.4358 29.9709 16.2658 30.1408C16.0959 30.3108 15.8654 30.4063 15.625 30.4063Z" fill="#263955"/>
<path d="M15.6217 30.4062C15.5026 30.4064 15.3848 30.383 15.2748 30.3375C15.1648 30.2919 15.065 30.225 14.981 30.1407L13.1685 28.3282C13.0034 28.1573 12.912 27.9283 12.9141 27.6907C12.9162 27.4531 13.0115 27.2258 13.1795 27.0578C13.3475 26.8898 13.5748 26.7945 13.8124 26.7924C14.0501 26.7903 14.279 26.8817 14.4499 27.0468L16.2624 28.8593C16.3891 28.986 16.4754 29.1475 16.5103 29.3232C16.5453 29.499 16.5273 29.6812 16.4588 29.8468C16.3902 30.0123 16.2741 30.1538 16.1251 30.2534C15.9761 30.353 15.8009 30.4062 15.6217 30.4062Z" fill="#263955"/>
<path d="M15.6248 30.4062C15.4456 30.4062 15.2704 30.353 15.1214 30.2534C14.9724 30.1538 14.8563 30.0123 14.7877 29.8468C14.7191 29.6812 14.7012 29.499 14.7362 29.3232C14.7711 29.1475 14.8574 28.986 14.9841 28.8593L16.7966 27.0468C16.9675 26.8817 17.1964 26.7903 17.434 26.7924C17.6717 26.7945 17.899 26.8898 18.067 27.0578C18.235 27.2258 18.3303 27.4531 18.3324 27.6907C18.3345 27.9283 18.2431 28.1573 18.078 28.3282L16.2655 30.1407C16.1815 30.225 16.0816 30.2919 15.9717 30.3375C15.8617 30.383 15.7438 30.4064 15.6248 30.4062Z" fill="#263955"/>
<path d="M39.1842 31.7656C39.0651 31.7658 38.9473 31.7424 38.8373 31.6968C38.7273 31.6513 38.6275 31.5844 38.5435 31.5001L36.731 29.6876C36.5659 29.5166 36.4745 29.2877 36.4766 29.0501C36.4787 28.8125 36.574 28.5852 36.742 28.4172C36.91 28.2491 37.1373 28.1538 37.3749 28.1518C37.6126 28.1497 37.8415 28.241 38.0124 28.4061L39.8249 30.2186C39.9516 30.3454 40.0379 30.5068 40.0728 30.6826C40.1078 30.8584 40.0898 31.0406 40.0213 31.2061C39.9527 31.3717 39.8366 31.5132 39.6876 31.6128C39.5386 31.7124 39.3634 31.7656 39.1842 31.7656Z" fill="#263955"/>
<path d="M35.5623 31.7656C35.3831 31.7656 35.2079 31.7124 35.0589 31.6128C34.9099 31.5132 34.7938 31.3717 34.7252 31.2061C34.6566 31.0406 34.6387 30.8584 34.6737 30.6826C34.7086 30.5068 34.7949 30.3454 34.9216 30.2186L36.7341 28.4061C36.905 28.241 37.1339 28.1497 37.3715 28.1518C37.6092 28.1538 37.8365 28.2491 38.0045 28.4172C38.1725 28.5852 38.2678 28.8125 38.2699 29.0501C38.272 29.2877 38.1806 29.5166 38.0155 29.6876L36.203 31.5001C36.119 31.5844 36.0191 31.6513 35.9092 31.6968C35.7992 31.7424 35.6813 31.7658 35.5623 31.7656Z" fill="#263955"/>
<path d="M26.5 31.7656C25.6038 31.7656 24.7277 31.4999 23.9826 31.002C23.2374 30.5041 22.6566 29.7964 22.3137 28.9684C21.9707 28.1404 21.881 27.2294 22.0558 26.3504C22.2307 25.4714 22.6622 24.664 23.2959 24.0303C23.9296 23.3966 24.737 22.965 25.616 22.7902C26.495 22.6154 27.4061 22.7051 28.234 23.048C29.062 23.391 29.7697 23.9718 30.2676 24.7169C30.7655 25.4621 31.0313 26.3382 31.0313 27.2344C31.0299 28.4357 30.5521 29.5875 29.7026 30.437C28.8531 31.2865 27.7014 31.7643 26.5 31.7656ZM26.5 24.5156C25.9623 24.5156 25.4366 24.6751 24.9895 24.9738C24.5424 25.2726 24.194 25.6972 23.9882 26.194C23.7824 26.6907 23.7286 27.2374 23.8335 27.7648C23.9384 28.2922 24.1973 28.7766 24.5776 29.1568C24.9578 29.537 25.4422 29.796 25.9696 29.9009C26.497 30.0058 27.0436 29.952 27.5404 29.7462C28.0372 29.5404 28.4618 29.1919 28.7606 28.7448C29.0593 28.2977 29.2188 27.7721 29.2188 27.2344C29.218 26.5135 28.9314 25.8224 28.4217 25.3127C27.9119 24.803 27.2208 24.5163 26.5 24.5156Z" fill="#F47430"/>
<path d="M31.4844 36.2969C31.244 36.2969 31.0135 36.2014 30.8436 36.0314C30.6736 35.8615 30.5781 35.631 30.5781 35.3906V33.5781C30.5781 33.0974 30.3872 32.6364 30.0473 32.2965C29.7073 31.9566 29.2463 31.7656 28.7656 31.7656H24.2344C23.7537 31.7656 23.2927 31.9566 22.9527 32.2965C22.6128 32.6364 22.4219 33.0974 22.4219 33.5781V35.3906C22.4219 35.631 22.3264 35.8615 22.1564 36.0314C21.9865 36.2014 21.756 36.2969 21.5156 36.2969C21.2753 36.2969 21.0448 36.2014 20.8748 36.0314C20.7049 35.8615 20.6094 35.631 20.6094 35.3906V33.5781C20.6105 32.617 20.9927 31.6956 21.6723 31.0161C22.3519 30.3365 23.2733 29.9542 24.2344 29.9531H28.7656C29.7267 29.9542 30.6481 30.3365 31.3277 31.0161C32.0073 31.6956 32.3895 32.617 32.3906 33.5781V35.3906C32.3906 35.631 32.2951 35.8615 32.1252 36.0314C31.9552 36.2014 31.7247 36.2969 31.4844 36.2969Z" fill="#F47430"/>
</svg>
