<svg width="55" height="53" viewBox="0 0 55 53" fill="none" xmlns="http://www.w3.org/2000/svg">
<path d="M3.66667 44.848H5.5V43.0147H3.66667C2.65398 43.0147 1.83333 42.194 1.83333 41.1814V4.51469C1.83333 3.502 2.65398 2.68136 3.66667 2.68136H44C45.0127 2.68136 45.8333 3.502 45.8333 4.51469V6.34802H47.6667V4.51469C47.6667 2.48977 46.0249 0.848022 44 0.848022H3.66667C1.64175 0.848022 0 2.48977 0 4.51469V41.1814C0 43.2063 1.64175 44.848 3.66667 44.848Z" fill="#263955"/>
<path d="M3.66406 4.51471H5.4974V6.34804H3.66406V4.51471Z" fill="#F36B23"/>
<path d="M7.33594 4.51471H9.16927V6.34804H7.33594V4.51471Z" fill="#F36B23"/>
<path d="M11 4.51471H12.8333V6.34804H11V4.51471Z" fill="#F36B23"/>
<path d="M7.33594 48.5147C7.33594 50.5396 8.97769 52.1813 11.0026 52.1813H51.3359C53.3608 52.1813 55.0026 50.5396 55.0026 48.5147V11.848C55.0026 9.82309 53.3608 8.18134 51.3359 8.18134H11.0026C8.97769 8.18134 7.33594 9.82309 7.33594 11.848V48.5147ZM9.16927 11.848C9.16927 10.8353 9.98992 10.0147 11.0026 10.0147H51.3359C52.3486 10.0147 53.1693 10.8353 53.1693 11.848V48.5147C53.1693 49.5274 52.3486 50.348 51.3359 50.348H11.0026C9.98992 50.348 9.16927 49.5274 9.16927 48.5147V11.848Z" fill="#263955"/>
<path d="M11 11.848H12.8333V13.6814H11V11.848Z" fill="#263955"/>
<path d="M14.6641 11.848H16.4974V13.6814H14.6641V11.848Z" fill="#263955"/>
<path d="M18.3359 11.848H20.1693V13.6814H18.3359V11.848Z" fill="#263955"/>
<path d="M11 15.5147H51.3333V17.348H11V15.5147Z" fill="#263955"/>
<path d="M11 20.098H18.3333V21.9314H11V20.098Z" fill="#263955"/>
<path d="M11 23.7647H16.5V25.598H11V23.7647Z" fill="#263955"/>
<path d="M31.1667 27.4313C27.6226 27.4313 24.75 30.3039 24.75 33.848C24.75 37.3921 27.6226 40.2647 31.1667 40.2647C34.7107 40.2647 37.5833 37.3921 37.5833 33.848C37.5792 30.306 34.7087 27.4355 31.1667 27.4313ZM31.1667 38.4313C28.6355 38.4313 26.5833 36.3791 26.5833 33.848C26.5833 31.3169 28.6355 29.2647 31.1667 29.2647C33.6978 29.2647 35.75 31.3169 35.75 33.848C35.7468 36.378 33.6967 38.4281 31.1667 38.4313Z" fill="#F36B23"/>
<path d="M45.8333 31.098C45.8333 30.5915 45.4231 30.1813 44.9167 30.1813H42.4939C42.2998 29.5791 42.0578 28.9931 41.7688 28.4305L43.4821 26.7184C43.8396 26.3602 43.8396 25.7802 43.4821 25.422L39.5927 21.5326C39.2345 21.1751 38.6545 21.1751 38.2963 21.5326L36.5842 23.2449C36.0206 22.9571 35.4351 22.7151 34.8333 22.5208V20.098C34.8333 19.5915 34.4231 19.1813 33.9167 19.1813H28.4167C27.9102 19.1813 27.5 19.5915 27.5 20.098V22.5208C26.8982 22.7151 26.3127 22.9571 25.7492 23.2449L24.0371 21.5326C23.6789 21.1751 23.0989 21.1751 22.7407 21.5326L18.8512 25.422C18.4937 25.7802 18.4937 26.3602 18.8512 26.7184L20.5636 28.4305C20.487 28.5806 20.4133 28.7312 20.3436 28.8833C20.1502 29.3059 19.982 29.739 19.8394 30.1813H17.4167C16.9102 30.1813 16.5 30.5915 16.5 31.098V36.598C16.5 37.1045 16.9102 37.5147 17.4167 37.5147H19.8394C20.0335 38.1169 20.2755 38.7029 20.5645 39.2655L18.8512 40.9776C18.4937 41.3358 18.4937 41.9158 18.8512 42.274L22.7407 46.1634C23.0989 46.5209 23.6789 46.5209 24.0371 46.1634L25.7492 44.4511C26.3127 44.7389 26.8982 44.9809 27.5 45.1753V47.598C27.5 48.1045 27.9102 48.5147 28.4167 48.5147H33.9167C34.4231 48.5147 34.8333 48.1045 34.8333 47.598V45.1753C35.4351 44.9809 36.0206 44.7389 36.5842 44.4511L38.2963 46.1634C38.6545 46.5209 39.2345 46.5209 39.5927 46.1634L43.4821 42.274C43.8396 41.9158 43.8396 41.3358 43.4821 40.9776L41.7688 39.2655C42.0578 38.7029 42.2998 38.1169 42.4939 37.5147H44.9167C45.4231 37.5147 45.8333 37.1045 45.8333 36.598V31.098ZM44 35.6813H41.8055C41.3875 35.6813 41.0227 35.9644 40.9182 36.3688C40.684 37.2786 40.323 38.1518 39.8457 38.9612C39.6332 39.321 39.6917 39.7793 39.9868 40.0749L41.5367 41.6257L38.9444 44.2192L37.3936 42.6682C37.0977 42.3725 36.6394 42.3143 36.2794 42.527C35.47 43.0044 34.5973 43.3655 33.6875 43.5995C33.283 43.704 33 44.0688 33 44.4868V46.6813H29.3333V44.4868C29.3333 44.0688 29.0503 43.704 28.6458 43.5995C27.736 43.3655 26.8634 43.0044 26.054 42.527C25.6939 42.3143 25.2356 42.3725 24.9397 42.6682L23.389 44.2192L20.7966 41.6257L22.3465 40.0749C22.6417 39.7793 22.7001 39.321 22.4877 38.9612C22.0103 38.1518 21.6494 37.2786 21.4152 36.3688C21.3107 35.9644 20.9458 35.6813 20.5278 35.6813H18.3333V32.0147H20.5278C20.9458 32.0147 21.3107 31.7316 21.4152 31.3272C21.5632 30.7501 21.7628 30.1882 22.0112 29.6471C22.1545 29.3334 22.3135 29.0275 22.4877 28.7305C22.6994 28.3705 22.6414 27.9128 22.3465 27.6174L20.7966 26.0666L23.389 23.4732L24.9397 25.0246C25.2356 25.3203 25.6939 25.378 26.054 25.1651C26.8634 24.6882 27.736 24.3266 28.6458 24.0926C29.0503 23.9883 29.3333 23.623 29.3333 23.2057V21.0147H33V23.2092C33 23.6272 33.283 23.992 33.6875 24.0965C34.5973 24.3305 35.47 24.6916 36.2794 25.169C36.6394 25.3817 37.0977 25.3235 37.3936 25.0278L38.9444 23.4768L41.5367 26.0703L39.9868 27.6211C39.6917 27.9167 39.6332 28.375 39.8457 28.7348C40.323 29.5443 40.684 30.4174 40.9182 31.3272C41.0227 31.7316 41.3875 32.0147 41.8055 32.0147H44V35.6813Z" fill="#F36B23"/>
<path d="M45.8359 46.6813H51.3359V48.5147H45.8359V46.6813Z" fill="#263955"/>
</svg>
