<svg width="53" height="45" viewBox="0 0 53 45" fill="none" xmlns="http://www.w3.org/2000/svg">
<path d="M13.7177 22.8277C13.1882 23.0924 12.8594 23.6246 12.8594 24.2166V27.2144C12.8594 27.8063 13.1882 28.3385 13.7177 28.6033L15.4555 29.4684C15.6177 29.9455 15.813 30.4167 16.0344 30.8641L15.419 32.7103C15.2319 33.2718 15.3755 33.8807 15.7941 34.2992L17.9139 36.419C18.3325 36.8376 18.9414 36.9812 19.5029 36.7942L21.3444 36.177C21.7966 36.4001 22.2677 36.5954 22.7399 36.7553L23.6099 38.4953C23.8746 39.0248 24.4067 39.3537 24.9988 39.3537H27.9966C28.5885 39.3537 29.1206 39.0248 29.3854 38.4953L30.2505 36.7575C30.7276 36.5954 31.1988 36.4001 31.6462 36.1786L33.4924 36.794C34.0543 36.9813 34.663 36.8375 35.0814 36.4189L37.2012 34.2991C37.6197 33.8806 37.7635 33.2717 37.5763 32.7102L36.9592 30.8686C37.1822 30.4165 37.3776 29.9454 37.5375 29.4731L39.2775 28.6032C39.807 28.3385 40.1358 27.8063 40.1358 27.2143V24.2165C40.1358 23.6246 39.807 23.0924 39.2775 22.8276L37.5397 21.9625C37.3776 21.4854 37.1822 21.0142 36.9608 20.5668L37.5762 18.7206C37.7634 18.1591 37.6197 17.5502 37.2011 17.1317C36.8979 16.8285 36.4063 16.8285 36.1032 17.1317C35.8 17.4349 35.8 17.9265 36.1032 18.2297L35.4877 20.0761C35.3578 20.4662 35.3858 20.883 35.5667 21.2494C35.7599 21.6409 35.929 22.049 36.0694 22.4621C36.2008 22.8486 36.4754 23.1627 36.843 23.3464L38.583 24.2165V27.2143L36.8429 28.0842C36.4754 28.268 36.2007 28.5822 36.0693 28.9687C35.929 29.3818 35.7598 29.7899 35.5667 30.1813C35.3857 30.5478 35.3577 30.9645 35.4877 31.3548L36.1032 33.2011L33.9833 35.3209L32.1369 34.7054C31.7467 34.5755 31.33 34.6035 30.9635 34.7844C30.572 34.9777 30.164 35.1467 29.7508 35.2872C29.3643 35.4185 29.0503 35.6932 28.8665 36.0607L27.9965 37.8007H24.9987L24.1287 36.0606C23.945 35.6932 23.6308 35.4184 23.2443 35.2871C22.8311 35.1467 22.4231 34.9776 22.0317 34.7844C21.665 34.6035 21.2485 34.5754 20.8581 34.7054L19.0118 35.3209L16.892 33.201L17.5075 31.3546C17.6374 30.9645 17.6094 30.5477 17.4286 30.1813C17.2353 29.7898 17.0663 29.3817 16.9258 28.9686C16.7944 28.5821 16.5198 28.268 16.1522 28.0842L14.4122 27.2142V24.2164L16.1523 23.3464C16.5198 23.1627 16.7945 22.8485 16.9259 22.462C17.0662 22.0489 17.2354 21.6408 17.4286 21.2494C17.6095 20.8829 17.6376 20.4662 17.5075 20.0759L16.892 18.2296L19.0119 16.1098L20.8583 16.7253C21.2484 16.8551 21.6651 16.8271 22.0317 16.6463C22.4232 16.453 22.8312 16.284 23.2444 16.1435C23.6309 16.0121 23.945 15.7375 24.1287 15.3699L24.9988 13.6299H27.9966L28.8665 15.37C29.0503 15.7375 29.3644 16.0123 29.7509 16.1436C30.1641 16.284 30.5721 16.4531 30.9635 16.6463C31.3301 16.8272 31.7468 16.8553 32.1371 16.7253L33.9835 16.1098C34.4106 16.0745 34.7284 15.6998 34.6934 15.2726C34.6584 14.8454 34.2847 14.5271 33.8562 14.5623C33.7327 14.5725 33.6102 14.5975 33.4923 14.6368L31.6508 15.2539C31.1986 15.0308 30.7275 14.8355 30.2553 14.6756L29.3853 12.9356C29.1206 12.4061 28.5885 12.0772 27.9965 12.0772H24.9987C24.4068 12.0772 23.8746 12.4061 23.6098 12.9356L22.7447 14.6734C22.2676 14.8355 21.7964 15.0308 21.349 15.2522L19.5028 14.6368C18.9412 14.4497 18.3323 14.5935 17.9138 15.012L15.794 17.1317C15.3755 17.5502 15.2317 18.1591 15.4189 18.7206L16.0361 20.5622C15.813 21.0143 15.6177 21.4854 15.4577 21.9577L13.7177 22.8277Z" fill="#F47430"/>
<path d="M22.2282 21.951C21.925 21.6478 21.4334 21.6478 21.1303 21.951L17.9149 25.1664C17.6117 25.4696 17.6117 25.9612 17.9149 26.2643L21.1303 29.4797C21.4335 29.7829 21.9251 29.7829 22.2282 29.4797C22.5314 29.1765 22.5314 28.6849 22.2282 28.3818L19.5617 25.7154L22.2282 23.0489C22.5315 22.7458 22.5315 22.2541 22.2282 21.951Z" fill="#F47430"/>
<path d="M30.7744 29.4798C31.0775 29.783 31.5691 29.783 31.8722 29.4798L35.0876 26.2644C35.3908 25.9612 35.3908 25.4697 35.0876 25.1666L31.8722 21.9512C31.569 21.648 31.0774 21.648 30.7744 21.9512C30.4712 22.2544 30.4712 22.7459 30.7744 23.049L33.4408 25.7155L30.7744 28.382C30.471 28.6851 30.471 29.1768 30.7744 29.4798Z" fill="#F47430"/>
<path d="M28.4563 21.8056C28.0727 21.6137 27.6065 21.7693 27.4148 22.1528L24.1994 28.5837C24.0075 28.9672 24.163 29.4336 24.5465 29.6253C24.9301 29.8171 25.3964 29.6615 25.5881 29.2781L28.8035 22.8472C28.9953 22.4636 28.8399 21.9973 28.4563 21.8056Z" fill="#F47430"/>
<path d="M49.6357 0.823181H9.384C8.95524 0.823181 8.60763 1.17079 8.60763 1.59955C8.60763 2.02831 8.95524 2.37592 9.384 2.37592H49.6357C50.6346 2.37592 51.4473 3.18862 51.4473 4.18744V7.25409H1.55273V4.18744C1.55273 3.18862 2.36544 2.37592 3.36426 2.37592H5.76096C6.18972 2.37592 6.53732 2.02831 6.53732 1.59955C6.53732 1.17079 6.18972 0.823181 5.76096 0.823181H3.36426C1.50926 0.823181 0 2.33244 0 4.18744V40.8125C0 42.6675 1.50926 44.1768 3.36426 44.1768H9.45781C9.88657 44.1768 10.2342 43.8292 10.2342 43.4004C10.2342 42.9716 9.88657 42.624 9.45781 42.624H3.36426C2.36544 42.624 1.55273 41.8113 1.55273 40.8125V8.80682H51.4473V40.8126C51.4473 41.8114 50.6346 42.6241 49.6357 42.6241H13.0809C12.6521 42.6241 12.3045 42.9717 12.3045 43.4005C12.3045 43.8293 12.6521 44.1769 13.0809 44.1769H49.6357C51.4907 44.1769 53 42.6676 53 40.8126V4.18744C53 2.33234 51.4907 0.823181 49.6357 0.823181Z" fill="#263955"/>
<path d="M49.0107 5.59131C49.4395 5.59131 49.7871 5.24372 49.7871 4.81494C49.7871 4.38617 49.4395 4.03857 49.0107 4.03857C48.582 4.03857 48.2344 4.38617 48.2344 4.81494C48.2344 5.24372 48.582 5.59131 49.0107 5.59131Z" fill="#263955"/>
<path d="M45.792 5.59131C46.2208 5.59131 46.5684 5.24372 46.5684 4.81494C46.5684 4.38617 46.2208 4.03857 45.792 4.03857C45.3632 4.03857 45.0156 4.38617 45.0156 4.81494C45.0156 5.24372 45.3632 5.59131 45.792 5.59131Z" fill="#263955"/>
<path d="M42.5811 5.59131C43.0098 5.59131 43.3574 5.24372 43.3574 4.81494C43.3574 4.38617 43.0098 4.03857 42.5811 4.03857C42.1523 4.03857 41.8047 4.38617 41.8047 4.81494C41.8047 5.24372 42.1523 5.59131 42.5811 5.59131Z" fill="#263955"/>
</svg>
